<?xml version="1.0" encoding="iso-8859-1"?>
<!-- Generator: Adobe Illustrator 19.0.0, SVG Export Plug-In . SVG Version: 6.00 Build 0)  -->
<svg version="1.1" id="Capa_1" xmlns="http://www.w3.org/2000/svg" xmlns:xlink="http://www.w3.org/1999/xlink" x="0px" y="0px"
	 viewBox="0 0 512.007 512.007" style="enable-background:new 0 0 512.007 512.007;" xml:space="preserve">
<circle style="fill:#E57654;" cx="256.003" cy="256.003" r="256.003"/>
<path style="fill:#A2482A;" d="M512,256c0-7.33-0.325-14.584-0.93-21.758L379.36,102.532l0,0H255.055H133.237v168.38l0,0
	l59.864,59.864h-66.864v72.602l107.662,107.663c7.287,0.623,14.654,0.96,22.101,0.96C397.386,512,512,397.386,512,256z"/>
<g>
	<path style="fill:#3E3E42;" d="M372.863,354.919h-6.901v-25.74c0-7.674-6.244-13.917-13.917-13.917h-47.111v-6.901h47.111
		c11.48,0,20.818,9.339,20.818,20.818V354.919z"/>
	<rect x="220.186" y="258.202" style="fill:#3E3E42;" width="71.847" height="40.897"/>
</g>
<rect x="255.057" y="258.202" style="fill:#2D2E30;" width="36.983" height="40.897"/>
<rect x="133.242" y="102.532" style="fill:#57565C;" width="246.125" height="168.378"/>
<rect x="255.057" y="102.532" style="fill:#3E3E42;" width="124.3" height="168.378"/>
<rect x="158.658" y="125.217" style="fill:#FFFFFF;" width="195.273" height="123.008"/>
<rect x="255.057" y="125.217" style="fill:#AAC6E9;" width="98.884" height="123.008"/>
<rect x="200.843" y="299.096" style="fill:#57565C;" width="110.537" height="24.318"/>
<rect x="255.057" y="299.096" style="fill:#3E3E42;" width="56.323" height="24.318"/>
<rect x="126.232" y="330.773" style="fill:#57565C;" width="195.648" height="72.6"/>
<rect x="223.134" y="330.773" style="fill:#3E3E42;" width="98.746" height="72.6"/>
<path style="fill:#57565C;" d="M364.177,351.602h10.47c7.487,0,13.556,6.069,13.556,13.556v38.395h-37.582v-38.395
	C350.621,357.671,356.69,351.602,364.177,351.602z"/>
<g>
	<rect x="182.053" y="379.238" style="fill:#8A8A91;" width="104.641" height="12.528"/>
	<rect x="160.866" y="379.238" style="fill:#8A8A91;" width="12.528" height="12.528"/>
	<rect x="142.075" y="379.238" style="fill:#8A8A91;" width="12.528" height="12.528"/>
	<rect x="160.866" y="360.448" style="fill:#8A8A91;" width="12.528" height="12.528"/>
	<rect x="142.075" y="360.448" style="fill:#8A8A91;" width="12.528" height="12.528"/>
	<rect x="179.657" y="360.448" style="fill:#8A8A91;" width="12.528" height="12.528"/>
	<rect x="198.448" y="360.448" style="fill:#8A8A91;" width="12.528" height="12.528"/>
	<rect x="217.239" y="360.448" style="fill:#8A8A91;" width="12.528" height="12.528"/>
	<rect x="236.03" y="360.448" style="fill:#8A8A91;" width="12.528" height="12.528"/>
	<rect x="254.82" y="360.448" style="fill:#8A8A91;" width="12.528" height="12.528"/>
	<rect x="273.611" y="360.448" style="fill:#8A8A91;" width="12.528" height="12.528"/>
	<rect x="292.402" y="360.448" style="fill:#8A8A91;" width="12.528" height="31.249"/>
	<rect x="160.866" y="341.657" style="fill:#8A8A91;" width="12.528" height="12.528"/>
	<rect x="142.075" y="341.657" style="fill:#8A8A91;" width="12.528" height="12.528"/>
	<rect x="179.657" y="341.657" style="fill:#8A8A91;" width="12.528" height="12.528"/>
	<rect x="198.448" y="341.657" style="fill:#8A8A91;" width="12.528" height="12.528"/>
	<rect x="217.239" y="341.657" style="fill:#8A8A91;" width="12.528" height="12.528"/>
	<rect x="236.03" y="341.657" style="fill:#8A8A91;" width="12.528" height="12.528"/>
	<rect x="254.82" y="341.657" style="fill:#8A8A91;" width="12.528" height="12.528"/>
	<rect x="273.611" y="341.657" style="fill:#8A8A91;" width="12.528" height="12.528"/>
	<rect x="292.402" y="341.657" style="fill:#8A8A91;" width="12.528" height="12.528"/>
</g>
<path style="fill:#3E3E42;" d="M373.005,351.602h-3.593v51.951h18.791v-36.753C388.203,358.407,381.398,351.602,373.005,351.602z"/>
<rect x="364.992" y="361.187" style="fill:#8A8A91;" width="8.842" height="14"/>
<g>
</g>
<g>
</g>
<g>
</g>
<g>
</g>
<g>
</g>
<g>
</g>
<g>
</g>
<g>
</g>
<g>
</g>
<g>
</g>
<g>
</g>
<g>
</g>
<g>
</g>
<g>
</g>
<g>
</g>
</svg>
