<?xml version="1.0" encoding="iso-8859-1"?>
<!-- Generator: Adobe Illustrator 19.0.0, SVG Export Plug-In . SVG Version: 6.00 Build 0)  -->
<svg version="1.1" id="Layer_1" xmlns="http://www.w3.org/2000/svg" xmlns:xlink="http://www.w3.org/1999/xlink" x="0px" y="0px"
	 viewBox="0 0 509.287 509.287" style="enable-background:new 0 0 509.287 509.287;" xml:space="preserve">
<circle style="fill:#EE4A68;" cx="254.644" cy="254.644" r="254.644"/>
<path style="fill:#FFFFFF;" d="M352.636,102.4H156.652c-19.327,0-34.924-15.597-34.924-34.925V37.298
	c-5.086,3.052-10.172,6.442-14.919,9.833v20.344c0.339,27.465,22.718,49.844,49.844,49.844h195.645
	c19.327,0,34.925,15.597,34.925,34.924v22.718h14.919v-22.718C402.14,124.44,379.762,102.4,352.636,102.4z"/>
<path style="fill:#F1F3F7;" d="M472.668,166.824H36.62c-6.103,0-10.85,4.408-10.85,9.833v169.536c0,5.425,5.086,9.833,10.85,9.833
	h436.048c6.103,0,10.85-4.408,10.85-9.833V176.657C483.857,171.232,478.771,166.824,472.668,166.824z"/>
<g>
	<path style="fill:#DDDEE6;" d="M77.987,194.289H53.913c-1.695,0-3.052,1.356-3.052,3.052v24.074c0,1.695,1.356,3.052,3.052,3.052
		h24.074c1.695,0,3.052-1.356,3.052-3.052V197.34C81.038,195.645,79.682,194.289,77.987,194.289z"/>
	<path style="fill:#DDDEE6;" d="M131.899,194.289h-24.074c-1.695,0-3.052,1.356-3.052,3.052v24.074c0,1.695,1.356,3.052,3.052,3.052
		h24.074c1.695,0,3.052-1.356,3.052-3.052V197.34C134.951,195.645,133.595,194.289,131.899,194.289z"/>
	<path style="fill:#DDDEE6;" d="M185.812,194.289h-24.074c-1.695,0-3.052,1.356-3.052,3.052v24.074c0,1.695,1.356,3.052,3.052,3.052
		h24.074c1.695,0,3.052-1.356,3.052-3.052V197.34C188.864,195.645,187.507,194.289,185.812,194.289z"/>
	<path style="fill:#DDDEE6;" d="M239.724,194.289H215.65c-1.695,0-3.052,1.356-3.052,3.052v24.074c0,1.695,1.356,3.052,3.052,3.052
		h24.074c1.695,0,3.052-1.356,3.052-3.052V197.34C242.776,195.645,241.42,194.289,239.724,194.289z"/>
	<path style="fill:#DDDEE6;" d="M293.637,194.289h-24.074c-1.695,0-3.052,1.356-3.052,3.052v24.074c0,1.695,1.356,3.052,3.052,3.052
		h24.074c1.695,0,3.052-1.356,3.052-3.052V197.34C296.689,195.645,295.332,194.289,293.637,194.289z"/>
	<path style="fill:#DDDEE6;" d="M347.55,194.289h-24.074c-1.695,0-3.052,1.356-3.052,3.052v24.074c0,1.695,1.356,3.052,3.052,3.052
		h24.074c1.695,0,3.052-1.356,3.052-3.052V197.34C350.601,195.645,349.245,194.289,347.55,194.289z"/>
	<path style="fill:#DDDEE6;" d="M401.462,194.289h-24.074c-1.695,0-3.052,1.356-3.052,3.052v24.074c0,1.695,1.356,3.052,3.052,3.052
		h24.074c1.695,0,3.052-1.356,3.052-3.052V197.34C404.514,195.645,403.158,194.289,401.462,194.289z"/>
	<path style="fill:#DDDEE6;" d="M455.375,194.289h-24.074c-1.695,0-3.052,1.356-3.052,3.052v24.074c0,1.695,1.356,3.052,3.052,3.052
		h24.074c1.695,0,3.052-1.356,3.052-3.052V197.34C458.427,195.645,457.07,194.289,455.375,194.289z"/>
	<path style="fill:#DDDEE6;" d="M77.987,298.045H53.913c-1.695,0-3.052,1.356-3.052,3.052v24.074c0,1.695,1.356,3.052,3.052,3.052
		h24.074c1.695,0,3.052-1.356,3.052-3.052v-24.074C81.038,299.401,79.682,298.045,77.987,298.045z"/>
	<path style="fill:#DDDEE6;" d="M131.899,298.045h-24.074c-1.695,0-3.052,1.356-3.052,3.052v24.074c0,1.695,1.356,3.052,3.052,3.052
		h24.074c1.695,0,3.052-1.356,3.052-3.052v-24.074C134.951,299.401,133.595,298.045,131.899,298.045z"/>
	<path style="fill:#DDDEE6;" d="M347.55,298.045H161.738c-1.695,0-3.052,1.356-3.052,3.052v24.074c0,1.695,1.356,3.052,3.052,3.052
		H347.55c1.695,0,3.052-1.356,3.052-3.052v-24.074C350.601,299.401,349.245,298.045,347.55,298.045z"/>
	<path style="fill:#DDDEE6;" d="M401.462,298.045h-24.074c-1.695,0-3.052,1.356-3.052,3.052v24.074c0,1.695,1.356,3.052,3.052,3.052
		h24.074c1.695,0,3.052-1.356,3.052-3.052v-24.074C404.514,299.401,403.158,298.045,401.462,298.045z"/>
	<path style="fill:#DDDEE6;" d="M455.375,298.045h-24.074c-1.695,0-3.052,1.356-3.052,3.052v24.074c0,1.695,1.356,3.052,3.052,3.052
		h24.074c1.695,0,3.052-1.356,3.052-3.052v-24.074C458.427,299.401,457.07,298.045,455.375,298.045z"/>
	<path style="fill:#DDDEE6;" d="M158.686,244.472h-24.074c-1.695,0-3.052,1.356-3.052,3.052v24.074c0,1.695,1.356,3.052,3.052,3.052
		h24.074c1.695,0,3.052-1.356,3.052-3.052v-24.074C162.077,245.828,160.721,244.472,158.686,244.472z"/>
	<path style="fill:#DDDEE6;" d="M212.938,244.472h-24.413c-1.695,0-3.052,1.356-3.052,3.052v24.074c0,1.695,1.356,3.052,3.052,3.052
		h24.074c1.695,0,3.052-1.356,3.052-3.052v-24.074C215.989,245.828,214.633,244.472,212.938,244.472z"/>
	<path style="fill:#DDDEE6;" d="M266.85,244.472h-24.074c-1.695,0-3.052,1.356-3.052,3.052v24.074c0,1.695,1.356,3.052,3.052,3.052
		h24.074c1.695,0,3.052-1.356,3.052-3.052v-24.074C269.902,245.828,268.546,244.472,266.85,244.472z"/>
	<path style="fill:#DDDEE6;" d="M320.763,244.472h-24.074c-1.695,0-3.052,1.356-3.052,3.052v24.074c0,1.695,1.356,3.052,3.052,3.052
		h24.074c1.695,0,3.052-1.356,3.052-3.052v-24.074C323.815,245.828,322.458,244.472,320.763,244.472z"/>
	<path style="fill:#DDDEE6;" d="M374.676,244.472h-24.074c-1.695,0-3.052,1.356-3.052,3.052v24.074c0,1.695,1.356,3.052,3.052,3.052
		h24.074c1.695,0,3.052-1.356,3.052-3.052v-24.074C377.727,245.828,376.371,244.472,374.676,244.472z"/>
	<path style="fill:#DDDEE6;" d="M455.375,244.472h-55.947c-1.695,0-3.052,1.356-3.052,3.052v24.074c0,1.695,1.356,3.052,3.052,3.052
		h55.947c1.695,0,3.052-1.356,3.052-3.052v-24.074C458.427,245.828,457.07,244.472,455.375,244.472z"/>
	<path style="fill:#DDDEE6;" d="M109.521,244.472H53.913c-1.695,0-3.052,1.356-3.052,3.052v24.074c0,1.695,1.356,3.052,3.052,3.052
		h55.947c1.695,0,3.052-1.356,3.052-3.052v-24.074C112.911,245.828,111.555,244.472,109.521,244.472z"/>
</g>
<g>
</g>
<g>
</g>
<g>
</g>
<g>
</g>
<g>
</g>
<g>
</g>
<g>
</g>
<g>
</g>
<g>
</g>
<g>
</g>
<g>
</g>
<g>
</g>
<g>
</g>
<g>
</g>
<g>
</g>
</svg>
