<?xml version="1.0" encoding="iso-8859-1"?>
<!-- Generator: Adobe Illustrator 18.0.0, SVG Export Plug-In . SVG Version: 6.00 Build 0)  -->
<!DOCTYPE svg PUBLIC "-//W3C//DTD SVG 1.1//EN" "http://www.w3.org/Graphics/SVG/1.1/DTD/svg11.dtd">
<svg version="1.1" id="Capa_1" xmlns="http://www.w3.org/2000/svg" xmlns:xlink="http://www.w3.org/1999/xlink" x="0px" y="0px"
	 viewBox="0 0 466.484 466.484" style="enable-background:new 0 0 466.484 466.484;" xml:space="preserve">
<g>
	<path d="M312.031,341.173c-11.143-13.917-13.326-33.308-5.564-49.398c3.897-8.066,5.873-16.607,5.873-25.386
		c0-29.788-22.81-55.58-56.022-64.089L253.94,68.796c4.803-2.362,8.124-7.292,8.124-12.996v-39.55c0-4.9-2.87-9.403-7.312-11.473
		c-13.672-6.371-29.351-6.37-43.021,0c-4.44,2.068-7.311,6.572-7.311,11.473V55.8c0,5.704,3.321,10.633,8.123,12.995l-2.378,133.505
		c-33.206,8.51-56.011,34.303-56.011,64.088c0,8.794,1.973,17.336,5.862,25.385c7.772,16.093,5.588,35.482-5.565,49.4
		c-10.646,13.306-16.273,28.862-16.273,44.989c0,44.289,42.646,80.32,95.064,80.32s95.064-36.031,95.064-80.32
		C328.306,370.036,322.679,354.479,312.031,341.173z M233.244,263.542c13.794,0,25.017,11.223,25.017,25.018
		c0,13.794-11.223,25.017-25.017,25.017s-25.017-11.223-25.017-25.017C208.227,274.764,219.45,263.542,233.244,263.542z
		 M233.244,251.542c-4.196,0-8.227,0.712-11.99,2.004l3.262-183.257h17.451l3.262,183.256
		C241.467,252.253,237.438,251.542,233.244,251.542z M216.421,16.251c0-0.255,0.148-0.488,0.379-0.596
		c5.225-2.435,10.833-3.651,16.442-3.651c5.608,0,11.218,1.217,16.441,3.651c0.23,0.107,0.38,0.342,0.38,0.596V55.8
		c0,1.372-1.116,2.488-2.488,2.488h-28.667c-1.371,0-2.487-1.116-2.487-2.488V16.251z M233.242,454.484
		c-45.802,0-83.064-30.648-83.064-68.32c0-13.373,4.718-26.337,13.64-37.488c14.027-17.503,16.776-41.887,7.005-62.121
		c-3.098-6.409-4.668-13.194-4.668-20.165c0-23.281,17.671-43.681,43.788-51.573l-0.814,45.695
		c-7.89,6.794-12.901,16.844-12.901,28.048c0,20.411,16.605,37.017,37.017,37.017s37.017-16.605,37.017-37.017
		c0-11.207-5.012-21.259-12.906-28.052l-0.814-45.692c26.123,7.891,43.799,28.292,43.799,51.574c0,6.956-1.574,13.74-4.68,20.169
		c-9.76,20.231-7.01,44.613,7.003,62.114c8.926,11.153,13.644,24.118,13.644,37.491
		C316.306,423.836,279.044,454.484,233.242,454.484z"/>
	<path d="M261.846,394.218h-57.21c-3.313,0-6,2.687-6,6v10.635c0,3.313,2.687,6,6,6s6-2.687,6-6v-4.635h45.21v4.635
		c0,3.313,2.687,6,6,6s6-2.687,6-6v-10.635C267.846,396.905,265.16,394.218,261.846,394.218z"/>
</g>
<g>
</g>
<g>
</g>
<g>
</g>
<g>
</g>
<g>
</g>
<g>
</g>
<g>
</g>
<g>
</g>
<g>
</g>
<g>
</g>
<g>
</g>
<g>
</g>
<g>
</g>
<g>
</g>
<g>
</g>
</svg>
